<?xml version="1.0" standalone="no"?>
<!DOCTYPE svg PUBLIC "-//W3C//DTD SVG 20010904//EN"
 "http://www.w3.org/TR/2001/REC-SVG-20010904/DTD/svg10.dtd">
<svg version="1.0" xmlns="http://www.w3.org/2000/svg"
 width="2816.000000pt" height="1536.000000pt" viewBox="0 0 2816.000000 1536.000000"
 preserveAspectRatio="xMidYMid meet">

<g transform="translate(0.000000,1536.000000) scale(0.100000,-0.100000)"
fill="#000000" stroke="none">
<path d="M11988 12715 c-2 -2 -132 -6 -289 -9 -157 -4 -301 -9 -320 -11 -19
-2 -95 -6 -169 -10 -74 -3 -157 -8 -185 -10 -27 -2 -90 -7 -140 -10 -49 -4
-155 -13 -235 -21 -137 -13 -223 -23 -532 -60 -73 -8 -212 -29 -308 -46 -96
-16 -204 -34 -240 -39 -36 -5 -73 -12 -82 -15 -20 -6 -39 -9 -98 -18 -25 -4
-124 -23 -220 -42 -486 -97 -1009 -262 -1370 -431 -47 -22 -94 -43 -106 -47
-28 -9 -464 -226 -634 -317 -233 -124 -382 -205 -580 -317 -25 -14 -115 -64
-200 -112 -85 -48 -256 -147 -380 -220 -124 -74 -234 -138 -245 -144 -11 -6
-221 -133 -468 -281 -246 -149 -502 -303 -570 -343 -67 -41 -225 -138 -352
-217 -500 -310 -502 -311 -1055 -485 -91 -28 -190 -60 -220 -69 -30 -10 -82
-26 -115 -35 -54 -16 -274 -85 -625 -197 -69 -22 -134 -44 -145 -49 -11 -5
-78 -28 -150 -51 -224 -71 -361 -130 -423 -179 -54 -43 -144 -161 -156 -205
-3 -11 -17 -54 -31 -95 -38 -106 -68 -249 -94 -457 -6 -46 -16 -118 -21 -160
-33 -256 -77 -726 -85 -918 -8 -182 -21 -284 -40 -305 -8 -9 -41 -24 -72 -34
-129 -39 -218 -131 -249 -256 -43 -176 -22 -640 46 -1034 26 -148 102 -453
146 -585 55 -165 164 -378 236 -462 144 -166 378 -295 618 -338 30 -5 120 -24
200 -41 357 -77 593 -125 805 -165 77 -15 154 -31 170 -36 17 -5 68 -16 115
-24 47 -9 157 -31 245 -50 88 -19 205 -43 260 -54 55 -11 210 -42 345 -70 214
-44 333 -65 364 -66 5 0 10 38 12 85 9 285 36 437 139 771 47 151 178 421 277
567 178 264 430 516 692 691 163 109 325 197 442 241 44 15 95 35 114 43 48
21 280 86 343 98 240 42 296 48 522 48 294 1 452 -18 670 -80 38 -11 93 -26
120 -34 155 -42 422 -168 600 -284 272 -176 549 -449 734 -722 140 -208 286
-529 331 -730 64 -284 69 -314 83 -524 l12 -180 5379 0 5379 0 -2 85 c-4 246
53 556 154 825 112 298 260 539 487 793 211 235 378 370 673 544 180 106 487
219 690 254 22 4 48 11 57 16 10 4 71 16 135 25 200 27 597 21 767 -13 11 -2
57 -11 101 -19 170 -33 495 -147 644 -227 224 -121 415 -262 605 -448 291
-284 500 -607 620 -959 61 -177 113 -368 127 -461 6 -41 14 -151 18 -245 l6
-170 140 -3 c359 -8 883 94 1174 230 87 41 201 122 286 204 176 170 271 407
414 1029 68 299 95 490 112 801 15 291 10 435 -19 491 -27 53 -97 106 -174
135 -39 14 -62 29 -68 42 -4 12 -10 98 -14 191 -21 510 -49 693 -126 821 -84
138 -144 182 -472 346 -120 59 -220 108 -224 108 -4 0 -36 15 -73 34 -85 43
-392 179 -468 207 -32 12 -63 26 -69 31 -7 5 -49 22 -95 39 -46 16 -93 34
-104 38 -11 5 -47 19 -80 32 -33 12 -74 28 -92 36 -18 7 -121 43 -230 78 -109
35 -211 69 -228 75 -28 11 -83 28 -395 123 -378 115 -934 250 -1355 329 -27 5
-113 22 -190 38 -354 73 -1161 188 -1760 250 -60 6 -168 18 -240 26 -71 7
-267 25 -435 39 -168 13 -357 29 -420 35 -63 5 -189 15 -280 20 -91 6 -197 12
-236 15 -185 11 -382 99 -583 258 -43 34 -89 70 -102 79 -41 28 -270 200 -351
263 -42 33 -148 113 -235 178 -87 65 -189 142 -228 172 -103 81 -333 257 -365
280 -83 60 -1014 766 -1130 856 -245 192 -1032 775 -1163 862 -228 150 -554
254 -902 287 -66 6 -165 15 -220 20 -126 12 -680 39 -1015 49 -238 8 -1255 12
-1262 6z m1287 -670 c127 -3 259 -8 295 -10 36 -3 137 -7 225 -10 88 -3 185
-8 215 -10 30 -2 109 -7 175 -11 66 -3 131 -7 145 -9 14 -2 59 -6 100 -10 97
-8 252 -40 346 -71 148 -48 229 -99 529 -329 86 -66 198 -151 250 -190 52 -38
136 -102 187 -141 51 -38 246 -185 432 -325 331 -248 455 -343 612 -464 42
-33 128 -98 191 -145 62 -47 191 -144 286 -216 94 -71 184 -139 198 -150 186
-138 299 -237 324 -285 24 -44 28 -119 11 -168 -24 -65 -59 -106 -118 -135
l-52 -26 -3650 0 -3651 0 -47 23 c-55 26 -114 93 -128 147 -7 26 -11 410 -13
1137 -2 1095 -2 1098 19 1143 46 99 116 146 237 161 165 20 473 49 617 59 85
5 175 12 200 15 50 5 289 14 690 25 259 8 915 5 1375 -5z m-3924 -299 c41 -7
87 -51 118 -113 21 -42 21 -45 21 -1073 0 -1118 3 -1058 -54 -1133 -14 -19
-48 -46 -75 -60 l-49 -27 -1328 0 -1329 0 -65 22 c-83 29 -177 117 -217 205
-25 52 -27 70 -28 168 0 94 3 118 24 164 56 131 154 226 540 525 42 32 96 75
121 95 110 90 593 424 827 572 374 236 697 410 951 513 185 75 458 159 492
151 8 -2 31 -6 51 -9z"/>
<path d="M6635 5610 c-514 -56 -1001 -329 -1347 -755 -87 -108 -113 -147 -200
-310 -85 -158 -110 -221 -167 -416 -58 -200 -76 -338 -74 -554 4 -394 100
-737 290 -1035 50 -80 172 -249 201 -279 9 -10 42 -44 72 -76 71 -75 192 -182
255 -225 28 -18 52 -37 55 -40 11 -14 130 -90 210 -133 157 -85 453 -184 640
-214 126 -20 506 -23 610 -5 124 22 326 80 449 128 329 128 624 347 844 624
337 424 486 923 437 1465 -26 296 -157 676 -315 912 -169 254 -383 464 -620
612 -131 81 -404 207 -520 240 -214 61 -576 87 -820 61z m440 -1253 c209 -59
351 -167 482 -366 68 -103 89 -161 107 -297 12 -90 12 -119 0 -202 -19 -124
-37 -190 -79 -273 -35 -69 -130 -194 -184 -242 -59 -52 -196 -126 -293 -157
-82 -26 -112 -31 -205 -32 -359 -3 -667 218 -780 557 -24 73 -26 94 -27 240 0
149 2 166 28 245 39 118 97 212 180 296 125 124 262 202 421 240 73 17 276 12
350 -9z"/>
<path d="M22500 5609 c-135 -14 -269 -45 -428 -98 -251 -84 -391 -160 -612
-332 -311 -241 -536 -560 -665 -939 -189 -556 -145 -1085 135 -1625 147 -282
428 -579 716 -757 225 -139 510 -242 787 -283 139 -21 375 -29 487 -16 152 17
244 32 255 41 6 5 26 12 44 15 102 18 366 122 526 208 253 135 574 447 722
702 54 92 143 270 143 284 0 7 10 31 22 54 29 57 84 265 109 417 17 107 20
155 16 340 -4 192 -8 231 -35 360 -37 173 -64 273 -98 357 -36 92 -111 238
-154 302 -20 31 -49 74 -63 96 -73 112 -183 237 -322 364 -252 231 -560 394
-888 471 -186 43 -489 60 -697 39z m473 -1270 c121 -39 226 -105 322 -203 103
-104 145 -182 196 -361 38 -133 25 -361 -28 -490 -35 -86 -105 -188 -179 -261
-132 -131 -273 -202 -459 -230 -159 -25 -274 -4 -450 81 -139 68 -221 140
-309 273 -124 189 -160 360 -122 577 28 156 94 283 210 404 121 125 218 181
391 227 78 21 106 24 210 20 101 -4 136 -10 218 -37z"/>
</g>
</svg>
