<?xml version="1.0" standalone="no"?>
<!DOCTYPE svg PUBLIC "-//W3C//DTD SVG 20010904//EN"
 "http://www.w3.org/TR/2001/REC-SVG-20010904/DTD/svg10.dtd">
<svg version="1.0" xmlns="http://www.w3.org/2000/svg"
 width="1080.000000pt" height="588.000000pt" viewBox="0 0 1080.000000 588.000000"
 preserveAspectRatio="xMidYMid meet">

<g transform="translate(0.000000,588.000000) scale(0.100000,-0.100000)"
fill="#000000" stroke="none">
<path d="M5015 4578 c-31 -17 -75 -60 -90 -88 -22 -43 -36 -212 -60 -724 -18
-377 -21 -2192 -4 -2266 11 -48 45 -91 94 -118 27 -16 146 -17 1406 -20 l1375
-2 13 107 c27 239 111 413 277 580 202 202 413 287 709 287 158 0 234 -16 376
-79 320 -141 548 -458 577 -805 l7 -85 282 -3 c264 -2 285 -1 337 18 71 27
145 105 170 181 24 71 35 396 16 453 -17 53 -63 102 -116 122 -29 11 -46 24
-49 38 -2 12 -6 122 -9 246 -6 242 -24 396 -55 465 -11 24 -39 63 -63 87 -57
58 -144 87 -438 149 -413 87 -757 132 -1505 194 -181 15 -320 32 -350 41 -59
19 -121 80 -694 682 -206 216 -404 415 -440 442 -36 28 -98 63 -138 80 l-72
30 -768 0 c-541 -1 -774 -4 -788 -12z m1511 -287 c82 -29 127 -71 452 -420
428 -458 462 -497 462 -535 0 -19 -9 -45 -21 -60 l-21 -27 -973 3 c-957 3
-973 3 -995 23 -47 42 -50 64 -50 392 1 169 5 370 9 446 9 145 20 179 64 197
13 6 229 8 517 7 484 -3 496 -4 556 -26z m-587 -1407 c27 -34 27 -70 -1 -111
l-23 -33 -232 0 -231 0 -26 31 c-31 37 -33 77 -5 113 l20 26 239 0 239 0 20
-26z"/>
<path d="M628 3241 c-116 -6 -118 -6 -150 -39 l-33 -32 -6 -488 c-4 -268 -7
-512 -8 -542 l-1 -56 -42 -14 c-28 -10 -51 -27 -66 -50 -23 -34 -24 -41 -20
-175 3 -119 7 -146 26 -181 24 -47 69 -88 118 -109 44 -18 390 -66 799 -110
83 -9 200 -23 260 -31 171 -22 161 -25 168 50 13 134 73 314 142 421 128 200
334 352 569 420 79 22 106 25 261 25 155 0 182 -3 260 -25 276 -80 502 -273
621 -529 47 -102 76 -215 83 -321 l6 -90 573 -3 c316 -1 572 1 570 5 -2 5 -15
31 -28 58 l-25 50 -3 888 -3 887 -1977 -2 c-1087 -1 -2030 -4 -2094 -7z"/>
<path d="M2465 2125 c-135 -29 -261 -99 -368 -203 -173 -170 -254 -394 -229
-628 35 -316 230 -558 539 -667 83 -30 96 -31 238 -31 142 0 155 1 237 30 324
115 537 409 538 742 0 216 -80 404 -240 562 -95 94 -209 157 -355 195 -73 19
-274 19 -360 0z m313 -484 c49 -25 104 -84 136 -145 21 -40 26 -63 26 -125 0
-179 -124 -305 -300 -306 -88 0 -144 23 -211 89 -60 60 -82 108 -87 197 -4 66
-1 84 20 130 33 72 70 114 132 149 47 27 59 30 149 30 77 0 106 -4 135 -19z"/>
<path d="M8531 2124 c-149 -32 -338 -156 -436 -286 -103 -136 -155 -294 -155
-474 0 -161 33 -275 117 -407 203 -318 598 -450 943 -315 176 70 331 212 415
383 68 136 78 190 73 375 -5 175 -21 230 -100 365 -106 179 -323 335 -508 364
-90 15 -272 12 -349 -5z m327 -490 c97 -48 162 -157 162 -272 0 -108 -80 -230
-180 -275 -66 -30 -180 -29 -241 1 -69 34 -122 84 -153 146 -23 46 -28 68 -28
129 0 119 52 208 156 268 46 26 60 29 142 29 77 0 98 -4 142 -26z"/>
</g>
</svg>
