<svg xmlns="http://www.w3.org/2000/svg" width="1387" height="756" viewBox="0 0 1387 756">
<g>
<path d="M 994.76 568.75 L 993.57 581.00 L 819.03 580.92 C804.61,580.91 791.34,580.91 779.13,580.91 C648.46,580.89 639.09,580.88 633.94,576.22 C633.07,575.42 632.31,574.49 631.10,573.40 C629.58,572.03 628.32,571.20 627.29,570.15 C622.45,565.22 622.46,555.52 622.57,463.58 C622.58,454.82 622.59,445.32 622.60,435.00 C622.71,304.02 623.14,286.41 628.05,213.00 C629.90,185.39 630.19,183.16 632.62,178.18 C635.51,172.26 641.03,167.61 647.10,165.97 C649.59,165.30 683.94,165.05 747.20,165.23 L 843.50 165.50 L 850.76 168.15 C861.56,172.10 872.23,179.25 882.49,189.43 C887.53,194.42 915.73,223.93 945.16,255.00 C974.59,286.08 1000.73,313.38 1003.24,315.69 C1008.94,320.90 1016.52,324.80 1023.30,326.02 C1026.16,326.53 1040.88,327.88 1056.00,329.01 C1147.07,335.82 1202.37,342.93 1258.50,355.04 C1285.59,360.89 1299.21,364.76 1305.39,368.38 C1310.33,371.28 1315.65,377.30 1318.80,383.55 C1323.41,392.71 1325.89,413.92 1326.85,452.44 L 1327.50 478.38 L 1333.43 480.68 C1340.69,483.49 1344.52,486.95 1347.62,493.50 C1349.79,498.09 1349.98,499.77 1349.97,514.00 C1349.96,538.86 1348.64,551.04 1345.12,558.56 C1341.78,565.69 1335.21,572.83 1329.13,575.94 C1320.09,580.55 1315.65,581.00 1279.43,581.00 L 1245.29 581.00 L 1244.59 570.90 C1243.28,551.83 1236.31,530.19 1226.34,514.19 C1207.12,483.35 1176.45,462.60 1140.96,456.43 C1126.68,453.94 1104.06,454.84 1089.51,458.47 C1066.20,464.30 1049.49,473.73 1031.91,491.00 C1009.24,513.27 997.86,537.09 994.76,568.75 ZM 611.30 580.37 C610.45,581.22 465.52,581.18 464.67,580.33 C464.30,579.97 464.00,576.65 464.00,572.96 C464.00,558.73 458.85,538.62 451.41,523.79 C435.25,491.60 406.20,467.97 371.50,458.79 C359.96,455.74 358.73,455.61 339.50,455.58 C320.95,455.55 318.77,455.74 309.42,458.22 C285.63,464.53 266.90,475.09 250.44,491.48 C229.41,512.43 218.04,537.34 214.47,570.28 L 213.85 576.06 L 210.67 575.54 C208.93,575.25 195.57,573.65 181.00,571.99 C117.39,564.75 69.03,558.77 63.08,557.41 C55.39,555.66 51.60,553.45 46.19,547.59 C40.42,541.33 38.87,535.51 38.26,517.72 C37.83,505.35 38.03,502.21 39.45,498.48 C41.36,493.49 45.11,490.35 51.34,488.51 L 55.50 487.28 L 56.00 418.89 C56.45,357.86 56.68,350.18 58.15,347.50 C60.12,343.90 62.41,341.79 66.70,339.62 C69.63,338.14 92.72,338.00 336.95,338.00 L 604.00 338.00 L 604.00 449.89 C604.00,558.92 604.05,561.96 606.00,568.26 C607.10,571.81 608.88,575.85 609.96,577.23 C611.05,578.61 611.65,580.02 611.30,580.37 ZM 1136.07 678.40 C1109.03,682.99 1081.96,676.18 1059.27,659.08 C1028.90,636.20 1014.44,600.57 1020.47,563.50 C1024.10,541.21 1034.02,522.65 1050.75,506.87 C1059.73,498.40 1064.98,494.83 1076.32,489.46 C1092.66,481.74 1098.71,480.50 1120.00,480.56 C1141.89,480.62 1148.53,482.02 1164.50,489.93 C1185.42,500.29 1200.22,515.53 1210.57,537.38 C1217.48,551.97 1219.48,561.53 1219.46,580.00 C1219.45,598.24 1217.64,606.64 1210.45,621.85 C1204.60,634.23 1199.10,641.72 1188.34,652.00 C1173.59,666.08 1155.83,675.05 1136.07,678.40 ZM 356.07 678.40 C330.37,682.76 306.46,677.50 284.04,662.58 C257.19,644.70 241.09,616.75 239.31,584.92 C236.60,536.33 269.66,492.39 316.78,481.97 C326.62,479.80 348.91,479.28 358.11,481.02 C372.27,483.68 389.05,491.06 399.72,499.30 C413.83,510.21 426.29,526.35 431.98,541.11 C443.46,570.88 442.35,597.21 428.42,625.11 C414.72,652.56 386.66,673.23 356.07,678.40 ZM 701.40 336.92 C703.19,337.45 756.27,337.76 827.33,337.67 L 950.16 337.50 L 953.08 334.23 C955.23,331.83 956.00,329.96 956.00,327.14 C956.00,323.88 955.05,322.19 949.65,315.87 C943.10,308.19 916.33,279.27 879.43,240.00 C861.88,221.33 853.89,211.46 843.55,206.24 C831.98,200.40 817.46,200.37 783.29,200.32 C778.02,200.31 772.27,200.30 766.00,200.27 C707.79,199.98 703.26,200.08 700.03,201.73 C693.54,205.05 692.90,207.44 691.86,232.27 C690.30,269.42 690.29,319.66 691.84,325.70 C693.34,331.54 696.78,335.58 701.40,336.92 ZM 1108.41 617.24 C1115.08,619.62 1126.30,619.11 1134.25,616.06 C1150.12,609.98 1161.09,590.66 1158.15,573.98 C1155.80,560.63 1148.39,550.29 1137.22,544.79 C1130.96,541.70 1129.90,541.50 1120.02,541.50 C1110.52,541.50 1108.89,541.78 1103.23,544.40 C1094.97,548.21 1086.08,557.55 1082.96,565.68 C1080.10,573.15 1079.85,584.33 1082.38,591.75 C1086.22,603.07 1096.26,612.89 1108.41,617.24 ZM 329.50 617.66 C336.28,619.91 347.56,618.87 355.08,615.30 C364.48,610.83 369.33,606.14 373.72,597.25 C377.34,589.94 377.50,589.17 377.50,579.54 C377.50,570.11 377.28,569.03 374.09,562.55 C370.03,554.28 364.00,548.13 356.22,544.31 C351.00,541.75 349.53,541.50 339.50,541.50 C329.51,541.50 327.98,541.75 322.88,544.26 C310.30,550.44 301.90,562.13 300.47,575.42 C298.46,594.16 310.21,611.26 329.50,617.66 ZM 696.92 400.08 L 699.85 403.00 L 759.15 403.00 L 762.08 400.08 C764.55,397.60 765.00,396.36 765.00,392.00 C765.00,387.64 764.55,386.40 762.08,383.92 L 759.15 381.00 L 699.85 381.00 L 696.92 383.92 C694.45,386.40 694.00,387.64 694.00,392.00 C694.00,396.36 694.45,397.60 696.92,400.08 Z" fill="rgb(0,0,0)"/>
<path d="M 0.00 378.00 L 0.00 0.00 L 693.50 0.00 L 1387.00 0.00 L 1387.00 378.00 L 1387.00 756.00 L 693.50 756.00 L 0.00 756.00 L 0.00 378.00 ZM 356.07 678.40 C386.66,673.23 414.72,652.56 428.42,625.11 C442.35,597.21 443.46,570.88 431.98,541.11 C426.29,526.35 413.83,510.21 399.72,499.30 C389.05,491.06 372.27,483.68 358.11,481.02 C348.91,479.28 326.62,479.80 316.78,481.97 C269.66,492.39 236.60,536.33 239.31,584.92 C241.09,616.75 257.19,644.70 284.04,662.58 C306.46,677.50 330.37,682.76 356.07,678.40 ZM 1136.07 678.40 C1155.83,675.05 1173.59,666.08 1188.34,652.00 C1199.10,641.72 1204.60,634.23 1210.45,621.85 C1217.64,606.64 1219.45,598.24 1219.46,580.00 C1219.48,561.53 1217.48,551.97 1210.57,537.38 C1200.22,515.53 1185.42,500.29 1164.50,489.93 C1148.53,482.02 1141.89,480.62 1120.00,480.56 C1098.71,480.50 1092.66,481.74 1076.32,489.46 C1064.98,494.83 1059.73,498.40 1050.75,506.87 C1034.02,522.65 1024.10,541.21 1020.47,563.50 C1014.44,600.57 1028.90,636.20 1059.27,659.08 C1081.96,676.18 1109.03,682.99 1136.07,678.40 ZM 611.30 580.37 C611.65,580.02 611.05,578.61 609.96,577.23 C608.88,575.85 607.10,571.81 606.00,568.26 C604.05,561.96 604.00,558.92 604.00,449.89 L 604.00 338.00 L 336.95 338.00 C92.72,338.00 69.63,338.14 66.70,339.62 C62.41,341.79 60.12,343.90 58.15,347.50 C56.68,350.18 56.45,357.86 56.00,418.89 L 55.50 487.28 L 51.34 488.51 C45.11,490.35 41.36,493.49 39.45,498.48 C38.03,502.21 37.83,505.35 38.26,517.72 C38.87,535.51 40.42,541.33 46.19,547.59 C51.60,553.45 55.39,555.66 63.08,557.41 C69.03,558.77 117.39,564.75 181.00,571.99 C195.57,573.65 208.93,575.25 210.67,575.54 L 213.85 576.06 L 214.47 570.28 C218.04,537.34 229.41,512.43 250.44,491.48 C266.90,475.09 285.63,464.53 309.42,458.22 C318.77,455.74 320.95,455.55 339.50,455.58 C358.73,455.61 359.96,455.74 371.50,458.79 C406.20,467.97 435.25,491.60 451.41,523.79 C458.85,538.62 464.00,558.73 464.00,572.96 C464.00,576.65 464.30,579.97 464.67,580.33 C465.52,581.18 610.45,581.22 611.30,580.37 ZM 994.76 568.75 C997.86,537.09 1009.24,513.27 1031.91,491.00 C1049.49,473.73 1066.20,464.30 1089.51,458.47 C1104.06,454.84 1126.68,453.94 1140.96,456.43 C1176.45,462.60 1207.12,483.35 1226.34,514.19 C1236.31,530.19 1243.28,551.83 1244.59,570.90 L 1245.29 581.00 L 1279.43 581.00 C1315.65,581.00 1320.09,580.55 1329.13,575.94 C1335.21,572.83 1341.78,565.69 1345.12,558.56 C1348.64,551.04 1349.96,538.86 1349.97,514.00 C1349.98,499.77 1349.79,498.09 1347.62,493.50 C1344.52,486.95 1340.69,483.49 1333.43,480.68 L 1327.50 478.38 L 1326.85 452.44 C1325.89,413.92 1323.41,392.71 1318.80,383.55 C1315.65,377.30 1310.33,371.28 1305.39,368.38 C1299.21,364.76 1285.59,360.89 1258.50,355.04 C1202.37,342.93 1147.07,335.82 1056.00,329.01 C1040.88,327.88 1026.16,326.53 1023.30,326.02 C1016.52,324.80 1008.94,320.90 1003.24,315.69 C1000.73,313.38 974.59,286.08 945.16,255.00 C915.73,223.93 887.53,194.42 882.49,189.43 C872.23,179.25 861.56,172.10 850.76,168.15 L 843.50 165.50 L 747.20 165.23 C683.94,165.05 649.59,165.30 647.10,165.97 C641.03,167.61 635.51,172.26 632.62,178.18 C630.19,183.16 629.90,185.39 628.05,213.00 C623.14,286.41 622.71,304.02 622.60,435.00 C622.49,576.72 621.77,565.01 631.10,573.40 C640.09,581.48 623.90,580.83 819.03,580.92 L 993.57 581.00 L 994.76 568.75 ZM 329.50 617.66 C310.21,611.26 298.46,594.16 300.47,575.42 C301.90,562.13 310.30,550.44 322.88,544.26 C327.98,541.75 329.51,541.50 339.50,541.50 C349.53,541.50 351.00,541.75 356.22,544.31 C364.00,548.13 370.03,554.28 374.09,562.55 C377.28,569.03 377.50,570.11 377.50,579.54 C377.50,589.17 377.34,589.94 373.72,597.25 C369.33,606.14 364.48,610.83 355.08,615.30 C347.56,618.87 336.28,619.91 329.50,617.66 ZM 1108.41 617.24 C1096.26,612.89 1086.22,603.07 1082.38,591.75 C1079.85,584.33 1080.10,573.15 1082.96,565.68 C1086.08,557.55 1094.97,548.21 1103.23,544.40 C1108.89,541.78 1110.52,541.50 1120.02,541.50 C1129.90,541.50 1130.96,541.70 1137.22,544.79 C1148.39,550.29 1155.80,560.63 1158.15,573.98 C1161.09,590.66 1150.12,609.98 1134.25,616.06 C1126.30,619.11 1115.08,619.62 1108.41,617.24 ZM 696.92 400.08 C694.45,397.60 694.00,396.36 694.00,392.00 C694.00,387.64 694.45,386.40 696.92,383.92 L 699.85 381.00 L 729.50 381.00 L 759.15 381.00 L 762.08 383.92 C764.55,386.40 765.00,387.64 765.00,392.00 C765.00,396.36 764.55,397.60 762.08,400.08 L 759.15 403.00 L 729.50 403.00 L 699.85 403.00 L 696.92 400.08 ZM 701.40 336.92 C696.78,335.58 693.34,331.54 691.84,325.70 C690.29,319.66 690.30,269.42 691.86,232.27 C692.90,207.44 693.54,205.05 700.03,201.73 C703.26,200.08 707.79,199.98 766.00,200.27 C849.19,200.69 839.19,197.19 879.43,240.00 C916.33,279.27 943.10,308.19 949.65,315.87 C955.05,322.19 956.00,323.88 956.00,327.14 C956.00,329.96 955.23,331.83 953.08,334.23 L 950.16 337.50 L 827.33 337.67 C756.27,337.76 703.19,337.45 701.40,336.92 Z" fill="rgb(254,254,254)"/>
</g>
</svg>