<?xml version="1.0" standalone="no"?>
<!DOCTYPE svg PUBLIC "-//W3C//DTD SVG 20010904//EN"
 "http://www.w3.org/TR/2001/REC-SVG-20010904/DTD/svg10.dtd">
<svg version="1.0" xmlns="http://www.w3.org/2000/svg"
 width="2816.000000pt" height="1536.000000pt" viewBox="0 0 2816.000000 1536.000000"
 preserveAspectRatio="xMidYMid meet">

<g transform="translate(0.000000,1536.000000) scale(0.100000,-0.100000)"
fill="#000000" stroke="none">
<path d="M11755 10380 c-240 -10 -530 -27 -690 -41 -233 -20 -890 -94 -925
-104 -8 -2 -73 -11 -143 -20 -119 -14 -576 -91 -802 -135 -55 -11 -161 -31
-235 -45 -142 -27 -629 -132 -765 -165 -44 -11 -129 -31 -190 -45 -114 -26
-192 -46 -560 -141 -121 -31 -272 -70 -335 -86 -63 -16 -162 -42 -220 -58 -58
-15 -181 -49 -275 -75 -518 -141 -1724 -490 -2080 -601 -141 -44 -272 -84
-310 -94 -51 -14 -782 -240 -935 -290 -84 -28 -218 -52 -250 -45 -14 3 -63 9
-110 14 -47 5 -229 39 -405 75 -341 70 -460 87 -621 89 -134 2 -144 -5 -144
-109 0 -72 1 -74 55 -151 87 -125 134 -206 177 -304 85 -198 79 -283 -37 -534
-20 -44 -55 -123 -77 -175 -22 -52 -46 -108 -53 -125 -34 -80 -49 -123 -100
-282 -44 -134 -67 -188 -104 -245 -27 -40 -69 -113 -94 -163 -44 -86 -46 -95
-52 -200 -4 -60 -2 -180 4 -265 6 -85 14 -198 17 -251 l7 -96 -54 -54 c-30
-30 -112 -104 -184 -164 -169 -143 -259 -237 -293 -305 -25 -51 -27 -64 -27
-175 0 -123 7 -197 24 -263 6 -20 15 -71 21 -112 19 -132 40 -262 60 -370 11
-58 24 -131 30 -163 27 -147 63 -209 132 -227 60 -17 87 -62 119 -203 16 -67
28 -136 29 -153 0 -17 13 -81 29 -142 23 -89 27 -114 17 -132 -13 -27 -58 -51
-334 -180 -282 -131 -307 -155 -271 -251 32 -83 46 -106 81 -127 72 -45 206
-69 648 -117 30 -3 71 -10 90 -16 82 -22 558 -56 1375 -99 215 -12 426 -23
470 -25 189 -11 591 -26 864 -32 287 -6 294 -6 286 13 -4 10 -16 42 -27 69
-11 28 -28 64 -38 80 -37 61 -137 408 -174 600 -8 44 -21 153 -27 243 -18 228
3 532 50 722 30 122 106 365 136 434 66 153 193 395 228 434 12 12 30 37 41
56 71 115 231 288 435 471 71 63 289 215 309 215 5 0 12 6 15 14 5 13 93 64
217 127 163 82 491 180 750 224 159 27 774 16 815 -14 6 -5 48 -16 95 -26 168
-35 388 -113 563 -201 93 -46 180 -93 195 -103 15 -10 72 -47 127 -82 136 -86
223 -161 403 -352 117 -123 176 -196 246 -302 52 -77 104 -160 116 -185 13
-25 29 -56 37 -70 36 -67 133 -271 133 -279 0 -5 7 -22 15 -38 19 -37 51 -151
65 -233 7 -36 18 -90 25 -120 17 -67 31 -162 50 -340 11 -103 12 -177 6 -310
-5 -96 -11 -179 -12 -185 -2 -5 -2 -12 1 -14 6 -4 547 8 615 14 28 3 160 9
295 15 318 12 709 28 985 40 121 5 337 14 480 20 143 6 445 20 670 32 226 12
435 22 465 23 190 6 451 17 615 25 105 6 298 15 430 20 132 6 393 17 580 25
582 25 1004 45 1150 55 169 11 867 41 1295 56 292 10 441 27 720 85 122 25
332 106 545 209 152 74 278 130 292 130 8 0 28 7 45 16 107 55 429 83 1398
119 80 3 170 10 201 16 l56 11 12 67 c39 211 197 562 350 776 118 165 335 401
476 518 39 31 97 80 130 108 32 27 83 64 112 80 30 17 67 42 83 55 15 14 32
23 37 22 4 -1 28 10 53 24 157 93 470 212 640 243 52 9 98 21 101 27 21 34
613 55 799 28 47 -7 96 -12 110 -12 14 0 30 -4 35 -8 6 -4 30 -11 55 -15 52
-8 139 -35 365 -112 212 -71 391 -167 605 -322 30 -22 73 -52 95 -67 48 -33
355 -342 407 -410 174 -229 246 -344 314 -506 67 -159 99 -248 142 -393 69
-235 82 -309 89 -497 3 -71 9 -128 13 -128 24 0 201 46 307 80 110 36 167 63
213 102 41 35 176 235 275 408 107 187 239 385 299 448 48 51 175 142 197 142
5 0 32 11 59 25 27 14 56 25 65 25 9 0 29 7 45 15 27 14 231 71 291 81 15 3
31 -1 38 -10 20 -23 -60 -79 -257 -178 -97 -49 -192 -104 -210 -121 -56 -53
-141 -184 -220 -337 -41 -80 -80 -152 -87 -160 -7 -8 -22 -33 -33 -55 -63
-124 -106 -205 -131 -245 -15 -25 -54 -92 -85 -150 -69 -124 -91 -151 -171
-195 -56 -32 -112 -52 -468 -171 -76 -26 -140 -52 -142 -58 -1 -6 -13 -67 -25
-136 -23 -129 -51 -245 -71 -296 -6 -16 -18 -56 -26 -89 -7 -33 -20 -70 -28
-82 -34 -51 -28 -51 265 3 297 55 431 85 499 110 70 26 161 74 161 84 0 3 17
33 39 66 36 56 155 271 167 304 3 8 35 76 70 150 35 75 64 139 64 142 0 8 199
437 245 528 18 36 49 103 70 149 47 108 130 226 197 283 64 53 156 112 263
168 121 63 181 114 194 166 6 24 11 53 11 66 0 44 -129 275 -221 394 -84 110
-302 310 -550 505 -142 111 -611 429 -634 429 -3 0 -32 16 -63 37 -130 83
-608 332 -782 408 -41 18 -149 65 -240 105 -196 85 -566 224 -665 250 -38 10
-95 27 -126 38 -149 52 -745 218 -924 257 -38 9 -126 29 -195 45 -475 111
-1131 228 -1545 275 -444 50 -680 71 -945 85 -521 27 -534 28 -601 49 -37 12
-131 59 -210 106 -79 47 -151 90 -159 94 -8 5 -58 36 -110 68 -108 67 -354
214 -540 322 -69 40 -188 110 -265 156 -879 518 -1652 908 -2506 1268 -535
225 -974 350 -1543 437 -105 17 -234 36 -286 44 -52 8 -126 18 -165 21 -38 3
-117 13 -175 20 -127 17 -442 42 -715 56 -269 14 -1169 19 -1430 9z m1085
-550 c346 -15 609 -35 760 -60 30 -5 89 -14 130 -20 181 -27 551 -104 677
-140 224 -64 487 -166 760 -294 78 -36 144 -66 147 -66 26 0 620 -338 864
-491 167 -106 242 -154 594 -390 269 -180 680 -474 813 -582 39 -32 103 -79
235 -175 l65 -47 -215 -3 c-126 -2 -306 3 -435 12 -364 26 -525 35 -1380 76
-382 18 -559 28 -910 50 -88 6 -248 15 -355 20 -930 49 -1944 119 -2940 205
-473 40 -708 61 -840 75 -52 6 -183 19 -290 30 -352 36 -1106 135 -1465 191
-413 65 -502 81 -635 117 -50 14 -176 68 -208 89 -15 10 -40 25 -57 33 -39 19
-342 321 -384 383 -18 26 -30 54 -27 62 4 13 30 29 106 69 35 19 422 148 635
213 1069 324 2206 539 3270 618 176 13 482 26 785 33 36 1 171 -3 300 -8z
m3050 -131 c466 -205 945 -447 1745 -881 66 -36 181 -101 255 -144 74 -43 203
-117 285 -164 298 -172 605 -357 925 -555 91 -57 221 -136 290 -178 69 -41
140 -88 159 -103 l34 -29 -99 -16 c-54 -10 -139 -20 -189 -24 -118 -9 -426 11
-540 35 -110 24 -242 89 -405 200 -174 119 -368 249 -435 290 -33 20 -152 97
-265 172 -551 362 -775 504 -1141 722 -173 103 -223 132 -464 268 -110 63
-328 180 -538 290 -105 55 -156 88 -155 98 6 29 278 102 348 92 19 -2 105 -35
190 -73z m-9115 -1689 c94 -5 215 -14 270 -20 618 -65 690 -74 1050 -141 504
-92 1072 -228 1503 -360 148 -45 176 -62 56 -34 -95 22 -291 62 -339 69 -22 3
-132 22 -245 41 -113 20 -257 45 -320 55 -210 37 -891 126 -1175 155 -932 94
-1729 100 -2655 20 -290 -26 -946 -119 -1205 -171 -16 -4 -27 -3 -23 1 20 21
684 191 923 236 412 77 874 132 1280 152 152 8 727 6 880 -3z m-4320 -399 c94
-32 211 -75 260 -96 50 -20 169 -65 265 -100 244 -88 378 -141 425 -168 57
-32 58 -64 4 -147 -46 -73 -95 -121 -187 -186 -154 -108 -237 -132 -498 -143
-247 -11 -804 -3 -822 12 -7 6 -10 17 -7 26 4 9 22 57 40 106 18 50 77 194
132 320 55 127 113 266 128 310 15 44 32 90 36 103 6 14 17 22 31 22 13 0 100
-27 193 -59z m21483 -845 c92 -19 217 -48 277 -65 106 -29 386 -124 409 -139
6 -4 29 -12 51 -18 53 -15 299 -114 505 -204 324 -140 686 -328 940 -489 74
-47 137 -88 140 -92 3 -3 23 -18 45 -32 175 -115 323 -237 376 -310 76 -105
30 -105 -531 -3 -188 34 -262 50 -435 91 -82 19 -199 47 -260 61 -338 78 -514
138 -670 226 -124 70 -301 209 -576 453 -357 316 -508 476 -509 543 0 20 60
14 238 -22z m-22244 -1661 c29 -19 69 -41 89 -50 45 -19 219 -65 357 -94 256
-56 345 -82 448 -133 87 -43 114 -63 170 -123 57 -61 81 -99 159 -256 51 -101
119 -245 151 -319 97 -218 278 -615 346 -755 35 -71 62 -132 59 -134 -13 -15
-51 45 -252 404 -59 105 -152 264 -207 355 -55 91 -120 199 -144 240 -104 176
-194 302 -255 357 -71 64 -197 125 -315 153 -37 8 -85 21 -340 90 -189 50
-353 103 -428 136 l-57 25 45 37 c25 20 61 52 80 69 19 18 36 33 38 33 2 0 27
-16 56 -35z m-194 -474 c19 -7 82 -26 140 -42 135 -39 221 -80 252 -121 31
-41 70 -117 143 -283 31 -71 64 -138 73 -147 13 -16 37 -18 201 -18 220 0 290
-10 343 -46 42 -29 122 -140 196 -269 25 -44 71 -123 102 -175 31 -52 74 -126
95 -165 61 -112 130 -236 165 -295 33 -56 150 -286 150 -295 0 -18 -23 4 -61
58 -23 34 -86 123 -139 197 -53 74 -136 194 -185 265 -142 207 -285 408 -314
438 -76 83 -195 129 -405 158 -54 7 -82 7 -89 0 -12 -12 40 -161 133 -381 32
-74 74 -178 95 -230 52 -131 111 -219 224 -329 l96 -94 -40 7 c-64 11 -175 46
-236 73 l-56 25 -151 376 c-83 207 -171 431 -197 497 -148 381 -169 430 -211
481 -40 50 -75 67 -185 93 -46 11 -97 27 -114 35 -39 21 -101 123 -119 198
l-6 28 32 -14 c18 -7 49 -19 68 -25z m236 -684 c11 -17 28 -43 36 -57 8 -14
45 -106 82 -205 61 -164 93 -245 201 -510 43 -104 51 -135 37 -135 -17 0 -156
89 -179 115 -12 13 -29 50 -38 82 -24 82 -141 544 -159 628 -9 39 -18 80 -22
93 -10 34 17 28 42 -11z"/>
<path d="M6670 5613 c-102 -8 -368 -67 -432 -94 -36 -16 -75 -29 -85 -29 -17
0 -66 -21 -103 -45 -8 -5 -57 -29 -109 -52 -52 -24 -112 -56 -135 -73 -229
-168 -293 -220 -376 -307 -171 -178 -257 -296 -346 -474 -18 -36 -40 -71 -48
-78 -9 -8 -16 -22 -16 -32 0 -10 -13 -49 -29 -86 -28 -66 -78 -222 -99 -313
-53 -222 -64 -554 -25 -765 25 -139 44 -215 65 -265 8 -20 18 -57 22 -84 6
-41 44 -137 77 -196 5 -8 25 -44 45 -80 58 -103 185 -290 234 -345 25 -27 55
-64 67 -81 25 -34 201 -192 259 -232 20 -13 71 -52 113 -86 126 -102 347 -199
606 -266 50 -13 95 -30 100 -36 18 -23 329 -47 525 -41 176 5 268 18 400 58
169 52 197 62 400 152 131 58 347 205 474 322 12 11 54 49 94 84 40 35 72 69
72 75 0 6 25 43 56 81 192 238 320 509 402 855 44 183 53 367 31 620 -10 121
-14 142 -40 240 -80 299 -230 636 -334 748 -11 12 -69 79 -130 150 -107 124
-217 225 -360 329 -86 62 -304 175 -385 198 -14 4 -47 19 -73 32 -93 46 -237
82 -422 105 -90 11 -410 18 -495 11z m394 -1257 c185 -36 330 -141 474 -343
115 -162 137 -238 128 -443 -3 -80 -12 -168 -19 -196 -18 -63 -63 -165 -99
-224 -49 -77 -166 -199 -218 -225 -27 -14 -65 -36 -86 -50 -20 -14 -55 -30
-78 -36 -23 -6 -65 -20 -94 -32 -48 -18 -68 -19 -200 -14 -133 5 -157 9 -249
40 -176 61 -354 200 -419 330 -15 29 -35 64 -45 78 -37 52 -62 192 -62 344 -1
130 2 147 31 240 17 55 48 129 70 163 34 57 184 222 201 222 3 0 33 20 66 45
58 43 96 60 200 92 116 35 247 38 399 9z"/>
<path d="M22575 5610 c-157 -8 -253 -25 -400 -68 -118 -36 -254 -82 -275 -94
-8 -4 -26 -13 -40 -19 -129 -57 -188 -92 -314 -188 -54 -42 -114 -87 -134
-100 -54 -36 -212 -198 -267 -273 -26 -37 -54 -69 -61 -72 -7 -3 -31 -36 -53
-74 -22 -38 -47 -74 -55 -82 -9 -7 -16 -18 -16 -24 0 -6 -16 -41 -35 -76 -59
-110 -127 -271 -140 -332 -2 -9 -8 -26 -14 -36 -11 -22 -51 -192 -73 -312 -14
-79 -18 -438 -6 -520 17 -118 80 -363 113 -445 6 -16 18 -46 25 -65 7 -19 48
-107 91 -195 64 -131 94 -181 171 -276 130 -163 239 -277 318 -331 14 -10 48
-36 75 -58 102 -82 199 -143 312 -196 142 -67 304 -126 403 -149 41 -9 84 -21
95 -25 35 -16 238 -40 384 -47 181 -8 480 21 489 47 2 6 12 10 21 10 10 0 60
13 112 28 252 76 483 189 644 315 96 75 261 226 326 299 61 67 194 253 207
288 3 8 28 56 55 105 88 163 121 258 188 535 31 130 39 215 39 393 -1 183 -9
269 -35 382 -9 39 -18 88 -21 110 -3 22 -15 64 -25 93 -10 29 -19 61 -19 71 0
25 -77 219 -100 251 -10 14 -30 50 -44 80 -30 63 -89 151 -178 265 -87 110
-158 185 -263 276 -49 43 -103 91 -120 105 -16 15 -55 43 -85 62 -30 19 -88
57 -129 85 -41 27 -92 55 -113 63 -22 7 -51 20 -66 29 -38 21 -183 75 -203 75
-9 0 -30 7 -48 16 -36 18 -130 37 -316 64 -137 20 -192 21 -420 10z m285
-1244 c144 -26 280 -93 394 -193 26 -24 52 -43 56 -43 17 0 119 -169 140 -231
11 -35 28 -84 37 -109 9 -28 17 -98 20 -186 5 -125 3 -152 -18 -234 -47 -189
-177 -355 -374 -479 -75 -47 -196 -94 -249 -96 -23 -1 -72 -5 -111 -10 -82 -8
-193 11 -286 50 -32 14 -64 25 -72 25 -26 0 -197 121 -237 168 -67 78 -157
217 -180 279 -56 148 -64 345 -20 497 36 125 141 292 211 333 16 10 29 23 29
30 0 7 27 33 61 58 174 128 389 179 599 141z"/>
<path d="M27307 4454 c-3 -3 -85 -25 -182 -49 -203 -50 -208 -53 -271 -182
-19 -39 -41 -77 -49 -83 -8 -7 -15 -17 -15 -22 0 -11 -243 -510 -291 -598 -16
-30 -68 -131 -116 -225 -120 -237 -133 -264 -133 -271 0 -6 45 2 95 17 17 4
129 29 250 55 121 25 240 56 265 68 74 35 106 111 263 616 60 192 143 478 153
525 3 17 15 56 26 88 19 52 21 77 5 61z"/>
<path d="M20069 3966 c-2 -2 -101 -6 -219 -10 -229 -8 -656 -39 -761 -55 -35
-6 -89 -17 -119 -26 -30 -8 -66 -17 -80 -21 -14 -3 -34 -10 -45 -14 -11 -5
-58 -25 -104 -44 -47 -20 -159 -84 -250 -143 -91 -58 -182 -116 -201 -128 -19
-12 -85 -54 -146 -93 -129 -83 -357 -208 -396 -217 -16 -4 -28 -11 -28 -16 0
-4 -17 -13 -37 -19 -242 -71 -344 -80 -1048 -100 -385 -11 -848 -28 -955 -35
-36 -2 -171 -7 -300 -10 -264 -6 -412 -11 -745 -25 -126 -6 -385 -15 -575 -20
-190 -6 -527 -17 -750 -25 -388 -14 -666 -23 -1397 -45 -325 -10 -775 -26
-1263 -45 -74 -3 -211 -8 -305 -10 -93 -3 -282 -9 -420 -15 -137 -5 -320 -10
-405 -11 -194 -1 -209 -4 -216 -38 -16 -79 -91 -273 -139 -365 -9 -16 -13 -31
-11 -33 4 -5 1754 10 2666 22 212 3 752 7 1200 10 448 3 984 7 1190 10 206 3
751 7 1210 10 459 3 979 8 1155 10 176 2 736 7 1245 10 509 3 1024 8 1145 10
121 3 459 5 750 7 292 1 569 3 618 6 98 4 104 10 65 65 -38 53 -147 391 -173
541 -40 220 -47 316 -41 536 4 118 9 241 12 273 l6 57 -64 0 c-36 0 -67 -2
-69 -4z"/>
</g>
</svg>
