<svg xmlns="http://www.w3.org/2000/svg" width="1387" height="756" viewBox="0 0 1387 756">
<g>
<path d="M 214.46 572.75 L 213.79 581.00 L 141.65 580.93 C66.38,580.86 66.35,580.86 58.06,576.54 C51.93,573.35 44.43,565.34 41.37,558.72 L 38.50 552.50 L 38.19 524.33 L 37.89 496.16 L 40.34 491.33 C45.73,480.70 48.02,480.00 77.72,479.99 C90.80,479.99 103.10,479.54 105.06,479.00 C109.32,477.82 113.25,473.94 115.69,468.50 C117.34,464.83 117.54,459.03 118.10,398.50 C118.75,330.34 118.84,328.39 124.03,282.00 C125.17,271.83 126.52,259.67 127.02,255.00 C127.53,250.32 131.11,218.15 134.98,183.50 C138.85,148.85 142.70,113.97 143.54,106.00 C144.38,98.03 145.29,90.48 145.56,89.24 L 146.04 86.97 L 535.77 87.26 L 925.50 87.54 L 934.78 89.70 C955.02,94.40 971.22,101.70 983.69,111.72 C987.64,114.90 999.09,126.50 1009.12,137.50 C1019.16,148.50 1035.93,166.73 1046.39,178.00 C1073.63,207.35 1085.65,220.41 1101.64,238.00 C1118.74,256.82 1133.65,271.26 1141.02,276.12 C1147.80,280.60 1156.23,284.86 1176.65,294.09 C1223.53,315.30 1240.84,323.41 1264.16,335.08 C1285.81,345.92 1294.45,351.43 1302.50,359.53 C1312.82,369.92 1320.63,385.99 1323.48,402.69 C1325.47,414.34 1326.99,439.43 1327.00,460.63 C1327.00,473.15 1327.34,478.01 1328.25,478.70 C1328.94,479.22 1331.53,480.23 1334.00,480.94 C1339.83,482.60 1347.35,489.97 1348.88,495.50 C1350.25,500.45 1350.34,532.41 1349.01,544.00 C1348.29,550.37 1347.16,554.29 1344.53,559.63 C1340.34,568.12 1335.22,573.05 1326.12,577.36 L 1319.50 580.50 L 1282.47 580.80 L 1245.44 581.11 L 1244.22 568.80 C1241.27,538.98 1230.66,515.46 1210.65,494.38 C1199.11,482.23 1190.74,475.67 1179.00,469.58 C1168.45,464.11 1162.27,461.73 1149.50,458.25 C1140.12,455.69 1138.26,455.52 1119.50,455.56 C1101.01,455.61 1098.76,455.81 1089.73,458.28 C1067.02,464.49 1049.78,473.86 1034.37,488.37 C1009.82,511.49 997.23,538.11 994.45,572.75 L 993.79 581.00 L 729.15 580.75 L 464.50 580.50 L 463.90 571.00 C462.04,541.26 450.44,514.91 429.71,493.32 C412.39,475.28 395.56,465.51 369.50,458.36 C357.11,454.96 332.83,454.02 319.00,456.40 C292.55,460.95 269.37,472.83 250.69,491.39 C228.86,513.08 217.17,539.33 214.46,572.75 ZM 807.00 303.41 L 811.50 305.98 L 939.55 305.99 L 1067.61 306.00 L 1072.36 302.99 C1080.40,297.89 1083.18,288.07 1079.00,279.57 C1077.90,277.33 1063.01,260.20 1045.90,241.50 C1028.79,222.80 1008.69,200.75 1001.22,192.50 C960.59,147.60 958.04,145.12 946.50,139.44 C936.52,134.53 929.62,132.52 917.60,131.01 C907.06,129.69 819.95,129.69 812.89,131.01 C805.42,132.40 800.10,136.34 796.75,142.94 L 794.00 148.36 L 794.01 217.93 L 794.02 287.50 L 796.37 292.50 C799.02,298.14 800.59,299.75 807.00,303.41 ZM 1145.50 676.55 C1125.13,682.48 1095.45,679.78 1076.53,670.28 C1056.89,660.43 1038.90,642.83 1029.74,624.50 C1004.74,574.50 1025.33,513.94 1075.50,489.91 C1091.94,482.03 1099.28,480.50 1120.50,480.51 C1136.27,480.52 1139.49,480.81 1146.48,482.82 C1170.03,489.60 1189.72,503.78 1202.85,523.42 C1215.29,542.01 1219.55,556.94 1219.42,581.50 C1219.34,595.92 1219.06,598.39 1216.60,606.50 C1206.17,640.94 1180.29,666.43 1145.50,676.55 ZM 363.23 677.12 C352.70,679.90 331.25,680.57 321.50,678.41 C305.14,674.79 292.30,669.08 279.88,659.89 C272.50,654.44 260.95,642.70 256.30,635.92 C250.92,628.09 244.99,615.15 242.23,605.20 C239.82,596.54 239.54,593.84 239.57,580.00 C239.62,561.47 241.64,551.71 248.40,537.44 C254.16,525.27 259.63,517.40 268.40,508.63 C281.41,495.62 299.03,485.90 316.65,482.00 C327.54,479.59 348.28,479.32 359.35,481.44 C396.81,488.61 426.71,516.90 436.64,554.57 C438.89,563.10 439.26,566.61 439.30,579.50 C439.34,592.66 439.02,595.71 436.70,604.37 C427.11,640.13 399.43,667.54 363.23,677.12 ZM 95.71 466.21 C92.73,468.34 91.33,468.52 76.00,468.82 C63.17,469.06 59.09,468.82 57.65,467.76 C55.87,466.44 55.82,463.70 56.29,398.94 C56.84,323.32 57.27,316.63 65.11,262.50 C72.90,208.79 89.23,124.85 93.90,114.55 C99.28,102.70 113.50,91.25 125.20,89.35 L 128.61 88.80 L 123.36 135.65 C103.04,317.06 103.59,311.79 102.04,340.50 C101.47,350.95 101.01,381.33 101.00,408.00 C100.99,438.16 100.60,457.90 99.96,460.21 C99.32,462.50 97.70,464.79 95.71,466.21 ZM 1109.29 617.61 C1111.89,618.46 1116.62,618.87 1121.65,618.68 C1128.42,618.42 1130.91,617.83 1136.26,615.19 C1151.60,607.64 1160.94,589.84 1158.09,573.59 C1155.77,560.37 1147.73,549.58 1136.18,544.16 C1131.16,541.81 1129.28,541.50 1120.00,541.50 C1110.69,541.50 1108.85,541.80 1103.75,544.20 C1096.21,547.73 1088.06,555.54 1084.42,562.73 C1081.72,568.07 1081.50,569.33 1081.50,579.50 C1081.50,589.67 1081.72,590.93 1084.41,596.25 C1089.35,605.99 1098.95,614.23 1109.29,617.61 ZM 328.41 617.24 C336.15,620.00 347.69,619.23 355.50,615.43 C363.23,611.66 370.85,604.08 374.53,596.50 C377.18,591.06 377.45,589.53 377.47,580.00 C377.50,570.65 377.20,568.87 374.80,563.75 C371.26,556.18 363.13,547.71 356.11,544.26 C351.02,541.75 349.48,541.50 339.50,541.50 C329.28,541.50 328.08,541.71 322.63,544.47 C306.50,552.63 298.03,568.85 300.99,585.88 C303.58,600.75 313.26,611.82 328.41,617.24 ZM 798.78 375.44 C800.99,376.64 806.67,376.93 828.85,376.96 C858.62,377.00 861.52,376.54 863.86,371.40 C865.87,367.00 865.28,360.43 862.59,357.31 L 860.17 354.50 L 798.83 354.50 L 796.41 357.31 C794.56,359.46 794.00,361.27 794.00,365.12 C794.00,371.07 795.10,373.45 798.78,375.44 Z" fill="rgb(1,1,1)"/>
<path d="M 0.00 378.00 L 0.00 0.00 L 693.50 0.00 L 1387.00 0.00 L 1387.00 378.00 L 1387.00 756.00 L 693.50 756.00 L 0.00 756.00 L 0.00 378.00 ZM 363.23 677.12 C399.43,667.54 427.11,640.13 436.70,604.37 C439.02,595.71 439.34,592.66 439.30,579.50 C439.26,566.61 438.89,563.10 436.64,554.57 C426.71,516.90 396.81,488.61 359.35,481.44 C348.28,479.32 327.54,479.59 316.65,482.00 C299.03,485.90 281.41,495.62 268.40,508.63 C259.63,517.40 254.16,525.27 248.40,537.44 C241.64,551.71 239.62,561.47 239.57,580.00 C239.54,593.84 239.82,596.54 242.23,605.20 C244.99,615.15 250.92,628.09 256.30,635.92 C260.95,642.70 272.50,654.44 279.88,659.89 C292.30,669.08 305.14,674.79 321.50,678.41 C331.25,680.57 352.70,679.90 363.23,677.12 ZM 1145.50 676.55 C1180.29,666.43 1206.17,640.94 1216.60,606.50 C1219.06,598.39 1219.34,595.92 1219.42,581.50 C1219.55,556.94 1215.29,542.01 1202.85,523.42 C1189.72,503.78 1170.03,489.60 1146.48,482.82 C1139.49,480.81 1136.27,480.52 1120.50,480.51 C1099.28,480.50 1091.94,482.03 1075.50,489.91 C1025.33,513.94 1004.74,574.50 1029.74,624.50 C1038.90,642.83 1056.89,660.43 1076.53,670.28 C1095.45,679.78 1125.13,682.48 1145.50,676.55 ZM 214.46 572.75 C217.17,539.33 228.86,513.08 250.69,491.39 C269.37,472.83 292.55,460.95 319.00,456.40 C332.83,454.02 357.11,454.96 369.50,458.36 C395.56,465.51 412.39,475.28 429.71,493.32 C450.44,514.91 462.04,541.26 463.90,571.00 L 464.50 580.50 L 729.15 580.75 L 993.79 581.00 L 994.45 572.75 C997.23,538.11 1009.82,511.49 1034.37,488.37 C1049.78,473.86 1067.02,464.49 1089.73,458.28 C1098.76,455.81 1101.01,455.61 1119.50,455.56 C1138.26,455.52 1140.12,455.69 1149.50,458.25 C1162.27,461.73 1168.45,464.11 1179.00,469.58 C1190.74,475.67 1199.11,482.23 1210.65,494.38 C1230.66,515.46 1241.27,538.98 1244.22,568.80 L 1245.44 581.11 L 1282.47 580.80 L 1319.50 580.50 L 1326.12 577.36 C1335.22,573.05 1340.34,568.12 1344.53,559.63 C1347.16,554.29 1348.29,550.37 1349.01,544.00 C1350.34,532.41 1350.25,500.45 1348.88,495.50 C1347.35,489.97 1339.83,482.60 1334.00,480.94 C1331.53,480.23 1328.94,479.22 1328.25,478.70 C1327.34,478.01 1327.00,473.15 1327.00,460.63 C1326.99,439.43 1325.47,414.34 1323.48,402.69 C1320.63,385.99 1312.82,369.92 1302.50,359.53 C1294.45,351.43 1285.81,345.92 1264.16,335.08 C1240.84,323.41 1223.53,315.30 1176.65,294.09 C1156.23,284.86 1147.80,280.60 1141.02,276.12 C1133.65,271.26 1118.74,256.82 1101.64,238.00 C1085.65,220.41 1073.63,207.35 1046.39,178.00 C1035.93,166.73 1019.16,148.50 1009.12,137.50 C999.09,126.50 987.64,114.90 983.69,111.72 C971.22,101.70 955.02,94.40 934.78,89.70 L 925.50 87.54 L 535.77 87.26 L 146.04 86.97 L 145.56 89.24 C145.29,90.48 144.38,98.03 143.54,106.00 C142.70,113.97 138.85,148.85 134.98,183.50 C131.11,218.15 127.53,250.32 127.02,255.00 C126.52,259.67 125.17,271.83 124.03,282.00 C118.84,328.39 118.75,330.34 118.10,398.50 C117.54,459.03 117.34,464.83 115.69,468.50 C113.25,473.94 109.32,477.82 105.06,479.00 C103.10,479.54 90.80,479.99 77.72,479.99 C48.02,480.00 45.73,480.70 40.34,491.33 L 37.89 496.16 L 38.19 524.33 L 38.50 552.50 L 41.37 558.72 C44.43,565.34 51.93,573.35 58.06,576.54 C66.35,580.86 66.38,580.86 141.65,580.93 L 213.79 581.00 L 214.46 572.75 ZM 95.71 466.21 C97.70,464.79 99.32,462.50 99.96,460.21 C100.60,457.90 100.99,438.16 101.00,408.00 C101.01,381.33 101.47,350.95 102.04,340.50 C103.59,311.79 103.04,317.06 123.36,135.65 L 128.61 88.80 L 125.20 89.35 C113.50,91.25 99.28,102.70 93.90,114.55 C89.23,124.85 72.90,208.79 65.11,262.50 C57.27,316.63 56.84,323.32 56.29,398.94 C55.82,463.70 55.87,466.44 57.65,467.76 C59.09,468.82 63.17,469.06 76.00,468.82 C91.33,468.52 92.73,468.34 95.71,466.21 ZM 328.41 617.24 C313.26,611.82 303.58,600.75 300.99,585.88 C298.03,568.85 306.50,552.63 322.63,544.47 C328.08,541.71 329.28,541.50 339.50,541.50 C349.48,541.50 351.02,541.75 356.11,544.26 C363.13,547.71 371.26,556.18 374.80,563.75 C377.20,568.87 377.50,570.65 377.47,580.00 C377.45,589.53 377.18,591.06 374.53,596.50 C370.85,604.08 363.23,611.66 355.50,615.43 C347.69,619.23 336.15,620.00 328.41,617.24 ZM 1109.29 617.61 C1098.95,614.23 1089.35,605.99 1084.41,596.25 C1081.72,590.93 1081.50,589.67 1081.50,579.50 C1081.50,569.33 1081.72,568.07 1084.42,562.73 C1088.06,555.54 1096.21,547.73 1103.75,544.20 C1108.85,541.80 1110.69,541.50 1120.00,541.50 C1129.28,541.50 1131.16,541.81 1136.18,544.16 C1147.73,549.58 1155.77,560.37 1158.09,573.59 C1160.94,589.84 1151.60,607.64 1136.26,615.19 C1130.91,617.83 1128.42,618.42 1121.65,618.68 C1116.62,618.87 1111.89,618.46 1109.29,617.61 ZM 798.78 375.44 C795.10,373.45 794.00,371.07 794.00,365.12 C794.00,361.27 794.56,359.46 796.41,357.31 L 798.83 354.50 L 829.50 354.50 L 860.17 354.50 L 862.59 357.31 C865.28,360.43 865.87,367.00 863.86,371.40 C861.52,376.54 858.62,377.00 828.85,376.96 C806.67,376.93 800.99,376.64 798.78,375.44 ZM 807.00 303.41 C800.59,299.75 799.02,298.14 796.37,292.50 L 794.02 287.50 L 794.01 217.93 L 794.00 148.36 L 796.75 142.94 C800.10,136.34 805.42,132.40 812.89,131.01 C819.95,129.69 907.06,129.69 917.60,131.01 C929.62,132.52 936.52,134.53 946.50,139.44 C958.04,145.12 960.59,147.60 1001.22,192.50 C1008.69,200.75 1028.79,222.80 1045.90,241.50 C1063.01,260.20 1077.90,277.33 1079.00,279.57 C1083.18,288.07 1080.40,297.89 1072.36,302.99 L 1067.61 306.00 L 939.55 305.99 L 811.50 305.98 L 807.00 303.41 Z" fill="rgb(254,254,254)"/>
</g>
</svg>