<?xml version="1.0" standalone="no"?>
<!DOCTYPE svg PUBLIC "-//W3C//DTD SVG 20010904//EN"
 "http://www.w3.org/TR/2001/REC-SVG-20010904/DTD/svg10.dtd">
<svg version="1.0" xmlns="http://www.w3.org/2000/svg"
 width="1080.000000pt" height="588.000000pt" viewBox="0 0 1080.000000 588.000000"
 preserveAspectRatio="xMidYMid meet">

<g transform="translate(0.000000,588.000000) scale(0.100000,-0.100000)"
fill="#000000" stroke="none">
<path d="M1135 5188 c-2 -7 -47 -404 -100 -883 -52 -478 -97 -886 -100 -905
-3 -19 -10 -283 -14 -587 -11 -719 12 -666 -294 -671 -233 -4 -258 -9 -297
-64 l-30 -41 0 -229 c0 -223 1 -230 24 -277 35 -69 67 -103 128 -136 l53 -30
581 -3 581 -3 6 84 c16 229 119 452 282 611 284 278 700 360 1062 210 218 -90
396 -258 498 -469 51 -104 82 -211 90 -305 4 -36 8 -80 11 -97 l5 -33 2058 0
2057 0 12 103 c23 193 82 345 189 484 133 175 310 294 528 358 78 22 105 25
255 25 150 0 177 -3 255 -25 173 -50 281 -112 404 -229 120 -116 193 -222 247
-357 27 -71 64 -237 64 -292 0 -71 -19 -67 301 -67 l289 0 52 27 c101 54 153
133 169 253 12 91 11 338 -1 382 -12 43 -75 103 -119 113 -17 4 -35 14 -40 23
-4 9 -11 123 -14 252 -4 143 -12 270 -22 324 -31 176 -110 313 -233 406 -90
67 -367 204 -900 446 -101 45 -215 102 -255 125 -87 52 -216 178 -533 524
-524 574 -693 751 -750 791 -91 64 -174 102 -305 139 l-121 35 -3034 0 c-2419
0 -3035 -3 -3039 -12z m6092 -342 c171 -43 211 -75 532 -426 108 -118 246
-269 307 -335 241 -262 341 -383 348 -420 9 -46 -21 -114 -62 -143 l-30 -22
-1009 0 -1008 1 -39 27 c-22 15 -50 47 -62 72 l-23 45 -1 538 c0 514 1 539 20
576 10 21 33 50 50 64 51 43 83 46 545 42 296 -3 383 -6 432 -19z m-512 -1746
c27 -30 25 -108 -3 -131 -30 -24 -143 -33 -332 -26 -152 5 -155 6 -177 32 -29
33 -30 84 -2 119 l20 26 238 0 c226 0 239 -1 256 -20z"/>
<path d="M935 5174 c-56 -20 -132 -80 -172 -136 -38 -52 -61 -132 -117 -409
-79 -390 -128 -689 -182 -1114 -23 -179 -33 -1263 -12 -1276 15 -10 232 -10
267 0 13 3 33 18 44 33 19 26 20 49 28 570 4 299 12 584 18 633 6 50 50 435
96 856 47 422 88 787 91 813 8 52 5 54 -61 30z"/>
<path d="M2460 2125 c-36 -8 -111 -37 -167 -65 -167 -82 -289 -212 -368 -390
-43 -98 -55 -162 -55 -305 0 -157 13 -215 76 -344 74 -151 230 -300 387 -369
114 -51 193 -65 332 -60 107 4 144 10 210 32 209 71 377 217 470 411 63 131
78 208 73 363 -4 97 -10 143 -27 192 -90 260 -254 429 -504 517 -62 22 -93 26
-217 29 -102 3 -164 -1 -210 -11z m305 -479 c47 -20 132 -106 155 -159 14 -30
20 -64 20 -122 0 -98 -20 -146 -87 -213 -69 -68 -111 -86 -208 -86 -68 -1 -88
3 -132 27 -109 57 -162 139 -170 263 -5 62 -2 79 20 127 28 62 88 126 144 156
48 25 204 29 258 7z"/>
<path d="M8560 2130 c-225 -43 -452 -223 -550 -435 -93 -201 -99 -433 -18
-625 33 -76 125 -205 190 -266 172 -158 345 -222 578 -211 64 3 139 13 170 22
143 44 296 145 387 254 59 71 146 238 162 311 16 68 13 294 -4 374 -50 238
-247 455 -496 547 -77 29 -96 32 -229 35 -80 1 -165 -1 -190 -6z m306 -500
c180 -103 205 -345 51 -487 -57 -53 -96 -73 -156 -80 -113 -13 -230 44 -298
145 -34 52 -37 63 -41 144 -4 80 -2 93 22 143 28 56 84 112 146 145 27 15 57
19 130 19 87 1 99 -2 146 -29z"/>
</g>
</svg>
